<svg xmlns="http://www.w3.org/2000/svg" xmlns:xlink="http://www.w3.org/1999/xlink" viewBox="0 0 89.36 100"><defs><style>.cls-1{fill:url(#Безымянный_градиент);}.cls-2{fill:url(#Безымянный_градиент_2);}.cls-3{fill:url(#Безымянный_градиент_3);}.cls-4{fill:url(#Безымянный_градиент_4);}.cls-5{fill:none;}</style><linearGradient id="Безымянный_градиент" x1="-314.16" y1="291.74" x2="-306.53" y2="291.74" gradientTransform="matrix(6.11, 0, 0, -6.11, 1936.77, 1801.43)" gradientUnits="userSpaceOnUse"><stop offset="0.08" stop-color="#54b06a"/><stop offset="0.37" stop-color="#65b362"/></linearGradient><linearGradient id="Безымянный_градиент_2" x1="-314.18" y1="286" x2="-306.51" y2="286" gradientTransform="matrix(6.11, 0, 0, -6.11, 1936.77, 1801.43)" gradientUnits="userSpaceOnUse"><stop offset="0.12" stop-color="#df2253"/><stop offset="0.45" stop-color="#e63d49"/></linearGradient><linearGradient id="Безымянный_градиент_3" x1="-308.6" y1="288.88" x2="-304.03" y2="288.88" gradientTransform="matrix(6.11, 0, 0, -6.11, 1936.77, 1801.43)" gradientUnits="userSpaceOnUse"><stop offset="0.08" stop-color="#fcc40d"/><stop offset="0.29" stop-color="#fdce0f"/><stop offset="0.68" stop-color="#fee40e"/><stop offset="0.77" stop-color="#fee90f"/></linearGradient><linearGradient id="Безымянный_градиент_4" x1="-311.48" y1="294.47" x2="-311.48" y2="283.3" gradientTransform="matrix(6.11, 0, 0, -6.11, 1936.77, 1801.43)" gradientUnits="userSpaceOnUse"><stop offset="0.2" stop-color="#48bce8"/><stop offset="0.59" stop-color="#61c4e2"/></linearGradient></defs><g id="Слой_2" data-name="Слой 2"><g id="Слой_1-2" data-name="Слой 1"><path class="cls-1" d="M61.41,23.76,20.77.8c-2-1.14-3.81-1-4.92.09L49.92,35.2l6.47-3.07c3.35-1.89,8.38-6.47,5-8.37Z"/><path class="cls-2" d="M49.84,35.12l8.35,5.24c3.35,1.9,6.31,3.75,3,6.16l-40.33,23c-2.17,1.22-4,1-5.11-.33L26.49,56.24Z"/><path d="M18.71,87.12a4.41,4.41,0,1,1,0,8.82,4.41,4.41,0,1,1,0-8.82Zm0,7.09a2.7,2.7,0,1,0-2.55-2.7A2.56,2.56,0,0,0,18.74,94.21Zm9.77-7.09a4.41,4.41,0,1,1,0,8.82,4.41,4.41,0,1,1,0-8.82Zm0,7.09A2.7,2.7,0,1,0,26,91.51,2.57,2.57,0,0,0,28.54,94.21ZM49,92.88a2.5,2.5,0,0,0,4.39.1L55,94a4.49,4.49,0,0,1-8.16-2.51A4.38,4.38,0,0,1,51.28,87,4.22,4.22,0,0,1,55,90.35Zm3.76-3.15a1.7,1.7,0,0,0-1.64-1,2.49,2.49,0,0,0-2.45,2.65Zm-12,4.9a3,3,0,0,1-2.37,1.31,4.41,4.41,0,1,1,0-8.82,2.93,2.93,0,0,1,2.25,1l.7.58Zm-2.42-.39a2.75,2.75,0,0,0,0-5.46,2.74,2.74,0,0,0,0,5.46Z"/><path d="M40.63,88.42l.29,1.44v1.77l-.25,1.86v2.08c0,1.41-.74,2.7-2.31,2.7A2.56,2.56,0,0,1,36,96.68l-1.68.73a4.27,4.27,0,0,0,4,2.59,4.09,4.09,0,0,0,4.16-4.41V87.3H40.63v1.12Zm3.26-5.9H45.8V95.71H43.89Zm25.59,0h1.91V95.71H69.48Zm-56,5.89H7.11v1.84h4.46c-.08,2.15-1.69,3.9-4.57,3.9A5.13,5.13,0,0,1,7,83.89a5.07,5.07,0,0,1,3.52,1.4L11.79,84A7,7,0,1,0,7,96s7.05.35,6.44-7.55Zm75.92-1.1H87.2l-2.29,5.83-2.35-5.83H80.45l3.53,8-2.06,4.4h2ZM64.23,82.52H59.37V95.71h1.91V90.6h3a4,4,0,1,0,0-8.08Zm-.13,6.34H61.28V84.28H64.1a2.29,2.29,0,1,1,0,4.58ZM76.31,87a3.87,3.87,0,0,0-3.6,2l1.75.69a2.14,2.14,0,0,1,1.88-1,2,2,0,0,1,2.12,1.87,5,5,0,0,0-2.26-.49c-3.74,0-3.63,2.92-3.63,2.92,0,3.07,3.28,2.92,3.28,2.92a3.24,3.24,0,0,0,2.55-1.38v1.13h1.9V90.53A3.68,3.68,0,0,0,76.31,87Zm2.1,5.2a2.46,2.46,0,0,1-2.84,2,1.21,1.21,0,0,1-.16-2.36,4,4,0,0,1,3,.31Z"/><path class="cls-3" d="M75.29,31.58l-14-7.88L49.85,35.12,61.16,46.53l14.12-8.05a7.54,7.54,0,0,0,1.1-.76,4.78,4.78,0,0,0,.79-.85l.15-.22c1.06-1.72.38-3.7-2-5.07Z"/><path class="cls-4" d="M15.87.88A4.71,4.71,0,0,0,14.7,4.33l.06,61.58a5.2,5.2,0,0,0,1,3.26L49.84,35.11Z"/><path class="cls-5" d="M14.68,4.35C14.67.5,17.41-1.1,20.77.8l54.5,30.79c3.35,1.9,3.35,5,0,6.9l-54.4,31c-3.36,1.89-6.11.29-6.12-3.57Z"/></g></g></svg>