<svg xmlns="http://www.w3.org/2000/svg" viewBox="0 0 62.55 70"><defs><style>.cls-1{fill:#aaa;}.cls-2{fill:#606060;}.cls-3{fill:#ddd;}.cls-4{fill:none;}</style></defs><g id="Слой_2" data-name="Слой 2"><g id="Слой_1-2" data-name="Слой 1"><path class="cls-1" d="M43,16.63,14.54.56c-1.41-.8-2.67-.71-3.44.07L35,24.64l4.52-2.15C41.82,21.17,45.34,18,43,16.63Z"/><path class="cls-2" d="M34.89,24.58l5.84,3.67c2.35,1.33,4.42,2.63,2.08,4.32L14.58,48.65c-1.52.86-2.82.72-3.58-.23l7.54-9.05Z"/><path d="M13.1,61a3.09,3.09,0,1,1,0,6.18,3.09,3.09,0,1,1,0-6.18Zm0,5a1.89,1.89,0,1,0-1.79-1.89A1.8,1.8,0,0,0,13.12,66ZM20,61a3.09,3.09,0,1,1,0,6.18A3.09,3.09,0,1,1,20,61Zm0,5a1.89,1.89,0,1,0-1.79-1.89A1.8,1.8,0,0,0,20,66ZM34.32,65a1.68,1.68,0,0,0,1.55.95,1.7,1.7,0,0,0,1.52-.87l1.07.74a3.14,3.14,0,0,1-5.71-1.76,3.07,3.07,0,0,1,3.15-3.14,3,3,0,0,1,2.62,2.32ZM37,62.81a1.18,1.18,0,0,0-1.15-.69A1.74,1.74,0,0,0,34.09,64Zm-8.42,3.43a2.13,2.13,0,0,1-1.66.92,3.09,3.09,0,1,1,0-6.18,2,2,0,0,1,1.57.74l.49.41ZM26.83,66a1.92,1.92,0,1,0-1.73-1.91A1.79,1.79,0,0,0,26.83,66Z"/><path d="M28.44,61.89l.2,1v1.24l-.17,1.3V66.9a1.68,1.68,0,0,1-1.62,1.89,1.79,1.79,0,0,1-1.67-1.12L24,68.19A3,3,0,0,0,26.83,70a2.86,2.86,0,0,0,2.91-3.09v-5.8h-1.3v.78Zm2.28-4.12h1.34V67H30.72Zm17.91,0H50V67H48.63ZM9.41,61.88H5v1.29H8.1A2.88,2.88,0,0,1,4.9,65.9a3.59,3.59,0,0,1,0-7.18,3.6,3.6,0,0,1,2.47,1l.88-.93A4.85,4.85,0,0,0,4.9,57.46a4.86,4.86,0,1,0,0,9.71s4.94.24,4.51-5.29Zm53.14-.76H61l-1.6,4.07-1.65-4.07H56.32l2.46,5.6L57.35,69.8h1.43ZM45,57.76h-3.4V67H42.9V63.42H45a2.83,2.83,0,1,0,0-5.66Zm-.09,4.44h-2V59h2a1.6,1.6,0,1,1,0,3.2Zm8.55-1.3a2.71,2.71,0,0,0-2.52,1.41l1.22.49a1.48,1.48,0,0,1,1.32-.68,1.36,1.36,0,0,1,1.48,1.31,3.42,3.42,0,0,0-1.58-.35c-2.62,0-2.54,2-2.54,2,0,2.15,2.3,2,2.3,2a2.26,2.26,0,0,0,1.78-1V67h1.33V63.37A2.57,2.57,0,0,0,53.42,60.9Zm1.47,3.64a1.73,1.73,0,0,1-2,1.41.84.84,0,0,1-.12-1.65,2.82,2.82,0,0,1,2.12.21Z"/><path class="cls-3" d="M52.7,22.11l-9.81-5.52-8,8,7.92,8,9.89-5.64a4.53,4.53,0,0,0,.77-.53,3.74,3.74,0,0,0,.55-.59,1.4,1.4,0,0,0,.1-.16c.74-1.2.27-2.59-1.42-3.54Z"/><path class="cls-3" d="M11.11.61A3.35,3.35,0,0,0,10.29,3l0,43.11A3.7,3.7,0,0,0,11,48.42L34.89,24.58Z"/><path class="cls-4" d="M10.27,3.05c0-2.7,1.92-3.82,4.27-2.49L52.69,22.11c2.34,1.33,2.34,3.51,0,4.83L14.6,48.65c-2.35,1.33-4.28.2-4.28-2.5Z"/></g></g></svg>